<svg width="50" height="141" viewBox="0 0 50 141" fill="none" xmlns="http://www.w3.org/2000/svg">
<g clip-path="url(#clip0_9_122)">
<path d="M28.7 0H41.3C46.1 0 50 3.9 50 8.7V21.3C50 23.6075 49.0834 25.8203 47.4518 27.4518C45.8203 29.0834 43.6075 30 41.3 30H28.7C23.9 30 20 26.1 20 21.3V8.7C20 6.39261 20.9166 4.17974 22.5482 2.54817C24.1797 0.916605 26.3926 0 28.7 0ZM28.4 3C26.9678 3 25.5943 3.56892 24.5816 4.58163C23.5689 5.59433 23 6.96783 23 8.4V21.6C23 24.585 25.415 27 28.4 27H41.6C43.0322 27 44.4058 26.4311 45.4184 25.4184C46.4311 24.4058 47 23.0322 47 21.6V8.4C47 5.415 44.585 3 41.6 3H28.4ZM42.875 5.25C43.3722 5.25 43.8492 5.44755 44.2008 5.79918C44.5525 6.15081 44.75 6.62772 44.75 7.125C44.75 7.62228 44.5525 8.09919 44.2008 8.45082C43.8492 8.80245 43.3722 9 42.875 9C42.3778 9 41.9008 8.80245 41.5492 8.45082C41.1975 8.09919 41 7.62228 41 7.125C41 6.62772 41.1975 6.15081 41.5492 5.79918C41.9008 5.44755 42.3778 5.25 42.875 5.25ZM35 7.5C36.9891 7.5 38.8968 8.29017 40.3032 9.6967C41.7098 11.1032 42.5 13.0109 42.5 15C42.5 16.9891 41.7098 18.8968 40.3032 20.3032C38.8968 21.7098 36.9891 22.5 35 22.5C33.0109 22.5 31.1032 21.7098 29.6967 20.3032C28.2902 18.8968 27.5 16.9891 27.5 15C27.5 13.0109 28.2902 11.1032 29.6967 9.6967C31.1032 8.29017 33.0109 7.5 35 7.5ZM35 10.5C33.8065 10.5 32.6619 10.9741 31.818 11.818C30.9741 12.6619 30.5 13.8065 30.5 15C30.5 16.1934 30.9741 17.338 31.818 18.1819C32.6619 19.0259 33.8065 19.5 35 19.5C36.1934 19.5 37.338 19.0259 38.1819 18.1819C39.0259 17.338 39.5 16.1934 39.5 15C39.5 13.8065 39.0259 12.6619 38.1819 11.818C37.338 10.9741 36.1934 10.5 35 10.5Z" fill="white"/>
</g>
<g clip-path="url(#clip1_9_122)">
<path d="M49.1656 57.5294C47.9756 58.1471 46.6928 58.5529 45.3637 58.7471C46.7237 57.8118 47.7747 56.3294 48.2692 54.5471C46.9865 55.4294 45.5647 56.0471 44.0656 56.4C42.8447 54.8824 41.1292 54 39.1819 54C35.5501 54 32.5828 57.3882 32.5828 61.5706C32.5828 62.1706 32.6447 62.7529 32.7528 63.3C27.2511 62.9824 22.352 59.9647 19.0911 55.3941C18.5193 56.5059 18.1947 57.8118 18.1947 59.1882C18.1947 61.8176 19.3538 64.1471 21.1465 65.4706C20.0493 65.4706 19.0293 65.1176 18.1329 64.5882V64.6412C18.1329 68.3118 20.4202 71.3824 23.4493 72.0706C22.4768 72.3745 21.4558 72.4168 20.4665 72.1941C20.8863 73.6985 21.7084 75.0148 22.8172 75.9581C23.926 76.9015 25.2659 77.4242 26.6484 77.4529C24.3049 79.5713 21.4 80.7164 18.4111 80.7C17.8856 80.7 17.3602 80.6647 16.8347 80.5941C19.7711 82.7471 23.2638 84 27.0038 84C39.1819 84 45.8737 72.4588 45.8737 62.4529C45.8737 62.1176 45.8737 61.8 45.8583 61.4647C47.1565 60.4059 48.2692 59.0647 49.1656 57.5294Z" fill="white"/>
</g>
<g clip-path="url(#clip2_9_122)">
<path d="M20 132.429L32.975 126L20 119.571V132.429ZM48.9 115.65C49.225 116.657 49.45 118.007 49.6 119.721C49.775 121.436 49.85 122.914 49.85 124.2L50 126C50 130.693 49.6 134.143 48.9 136.35C48.275 138.279 46.825 139.521 44.575 140.057C43.4 140.336 41.25 140.529 37.95 140.657C34.7 140.807 31.725 140.871 28.975 140.871L25 141C14.525 141 8 140.657 5.425 140.057C3.175 139.521 1.725 138.279 1.1 136.35C0.775 135.343 0.55 133.993 0.4 132.279C0.225 130.564 0.15 129.086 0.15 127.8L0 126C0 121.307 0.4 117.857 1.1 115.65C1.725 113.721 3.175 112.479 5.425 111.943C6.6 111.664 8.75 111.471 12.05 111.343C15.3 111.193 18.275 111.129 21.025 111.129L25 111C35.475 111 42 111.343 44.575 111.943C46.825 112.479 48.275 113.721 48.9 115.65Z" fill="white"/>
</g>
<defs>
<clipPath id="clip0_9_122">
<rect width="30" height="30" fill="white" transform="translate(20)"/>
</clipPath>
<clipPath id="clip1_9_122">
<rect width="34" height="30" fill="white" transform="translate(16 54)"/>
</clipPath>
<clipPath id="clip2_9_122">
<rect width="50" height="30" fill="white" transform="translate(0 111)"/>
</clipPath>
</defs>
</svg>
